# Blender v2.81 (sub 16) OBJ File: ''
# www.blender.org
mtllib Helmet.mtl
o Astronaut
v 0.207243 3.168574 0.321968
v 0.000000 3.115988 0.422224
v 0.000000 3.323642 -0.010157
v 0.100975 3.327537 0.010601
v 0.175828 3.331710 0.085394
v 0.199986 3.306818 0.177256
v 0.136047 3.222597 0.313191
v 0.000000 3.168388 0.370387
v -0.207243 3.168574 0.321968
v -0.100975 3.327537 0.010601
v -0.175828 3.331710 0.085394
v -0.199987 3.306818 0.177256
v -0.136047 3.222597 0.313191
v 0.233708 3.511096 0.634904
v 0.000000 3.501767 0.705677
v 0.000000 3.329587 0.669329
v 0.219700 3.356574 0.614911
v 0.000000 3.199770 0.581931
v 0.196466 3.242319 0.559073
v 0.000000 3.682006 0.684066
v 0.219073 3.670842 0.617891
v 0.243250 3.937970 0.247716
v 0.000000 4.021694 0.251128
v 0.000000 3.971756 0.505902
v 0.235379 3.897885 0.477588
v 0.000000 3.978645 0.530434
v 0.000000 3.887182 0.626817
v 0.228403 3.834526 0.581907
v 0.247021 3.903492 0.498759
v 0.208322 3.878977 0.063977
v 0.000000 3.923048 0.043209
v 0.250877 3.590984 -0.056777
v 0.000000 3.598130 -0.117130
v 0.000000 3.782085 -0.058550
v 0.235243 3.755679 -0.010692
v 0.210524 3.282756 -0.000027
v 0.000000 3.244754 -0.038469
v 0.000000 3.405581 -0.103926
v 0.235520 3.420083 -0.048152
v 0.000000 3.100285 0.161118
v 0.248174 3.182489 0.188876
v 0.000000 3.167043 0.525288
v 0.209003 3.221229 0.507215
v 0.000000 3.089241 0.451358
v 0.240995 3.167654 0.450428
v 0.406422 3.379715 0.189681
v 0.437802 3.562187 0.190857
v 0.405177 3.742895 0.215408
v 0.359899 3.703295 0.516225
v 0.412590 3.716203 0.424570
v 0.390264 3.532712 0.455351
v 0.310158 3.681073 0.523034
v 0.393582 3.714341 0.411853
v 0.402955 3.366210 0.327646
v 0.426399 3.553393 0.347378
v 0.364447 3.369628 0.444275
v 0.199073 3.779178 0.575945
v 0.000000 3.825440 0.614456
v 0.239851 3.174231 0.517729
v 0.000000 3.110776 0.538966
v 0.000000 3.073568 0.470756
v 0.253694 3.156857 0.468390
v 0.370019 3.370843 0.410408
v 0.421155 3.358781 0.387583
v 0.440756 3.548335 0.434892
v 0.448402 3.552728 0.359498
v 0.423023 3.360989 0.340781
v -0.233708 3.511096 0.634904
v -0.219700 3.356574 0.614911
v -0.196466 3.242319 0.559073
v -0.219073 3.670842 0.617891
v -0.243250 3.937970 0.247716
v -0.235379 3.897885 0.477588
v -0.247021 3.903492 0.498759
v -0.228403 3.834526 0.581907
v -0.208322 3.878977 0.063977
v -0.250877 3.590984 -0.056777
v -0.235243 3.755679 -0.010692
v -0.210524 3.282756 -0.000027
v -0.235520 3.420083 -0.048152
v -0.248174 3.182489 0.188876
v -0.209003 3.221229 0.507215
v -0.240995 3.167654 0.450428
v -0.406422 3.379715 0.189681
v -0.437802 3.562187 0.190857
v -0.405177 3.742895 0.215408
v -0.412590 3.716203 0.424570
v -0.359899 3.703295 0.516225
v -0.310158 3.681073 0.523034
v -0.390264 3.532712 0.455351
v -0.393582 3.714341 0.411853
v -0.402955 3.366210 0.327646
v -0.426399 3.553393 0.347378
v -0.364447 3.369628 0.444275
v -0.199073 3.779178 0.575945
v -0.239851 3.174231 0.517729
v -0.253694 3.156857 0.468390
v -0.370019 3.370843 0.410408
v -0.421155 3.358781 0.387583
v -0.440755 3.548335 0.434892
v -0.448402 3.552728 0.359498
v -0.423023 3.360989 0.340781
vn 0.1853 0.5770 0.7954
vn -0.1853 0.5770 0.7954
vn 0.2750 -0.1748 0.9454
vn 0.2386 -0.5083 0.8275
vn 0.2878 0.1203 0.9501
vn 0.3184 0.9311 0.1781
vn 0.2929 0.6977 0.6538
vn 0.2654 0.8860 -0.3803
vn 0.2270 0.2893 -0.9299
vn 0.2127 0.5574 -0.8025
vn 0.2333 -0.3632 -0.9020
vn 0.2327 -0.0681 -0.9702
vn 0.2857 -0.7981 -0.5305
vn 0.2499 -0.8556 0.4533
vn 0.3137 -0.9487 -0.0404
vn 0.7233 -0.4680 -0.5077
vn 0.7914 -0.1173 -0.6000
vn 0.7120 0.5632 -0.4194
vn 0.7873 0.2272 -0.5731
vn 0.7290 0.4556 0.5108
vn 0.7309 0.1141 0.6729
vn 0.7736 0.6191 0.1350
vn 0.7735 -0.6333 -0.0243
vn 0.9881 -0.1487 0.0386
vn 0.7563 -0.1570 0.6352
vn 0.2741 0.4077 0.8710
vn 0.6477 0.3761 0.6626
vn 0.9826 0.1669 0.0817
vn 0.2760 -0.8589 0.4313
vn 0.7195 -0.6275 0.2975
vn 0.9742 -0.1647 0.1544
vn 0.3322 0.2729 0.9029
vn 0.3439 -0.2607 0.9021
vn 0.0236 0.2347 0.9718
vn 0.7073 -0.4213 0.5677
vn 0.9199 0.1759 0.3505
vn 0.9892 -0.1288 0.0701
vn 0.7923 -0.5693 0.2193
vn 0.1459 -0.1885 0.9712
vn 0.2445 0.9177 -0.3132
vn 0.2395 -0.2339 0.9423
vn 0.4888 0.6474 -0.5848
vn 0.2415 -0.7512 -0.6143
vn 0.4633 0.4114 -0.7849
vn 0.5167 0.0203 -0.8559
vn 0.3849 -0.2749 0.8811
vn 0.3093 -0.6725 -0.6723
vn -0.2750 -0.1748 0.9454
vn -0.2386 -0.5083 0.8275
vn -0.2878 0.1203 0.9501
vn -0.3184 0.9311 0.1781
vn -0.2929 0.6977 0.6538
vn -0.2654 0.8860 -0.3803
vn -0.2270 0.2893 -0.9299
vn -0.2127 0.5574 -0.8025
vn -0.2333 -0.3632 -0.9020
vn -0.2327 -0.0681 -0.9702
vn -0.2857 -0.7981 -0.5305
vn -0.2499 -0.8556 0.4533
vn -0.3137 -0.9487 -0.0404
vn -0.7233 -0.4680 -0.5077
vn -0.7914 -0.1173 -0.6000
vn -0.7120 0.5632 -0.4194
vn -0.7873 0.2272 -0.5731
vn -0.7290 0.4556 0.5108
vn -0.7309 0.1141 0.6729
vn -0.7736 0.6191 0.1350
vn -0.7735 -0.6333 -0.0243
vn -0.9881 -0.1487 0.0386
vn -0.7563 -0.1570 0.6352
vn -0.2741 0.4077 0.8710
vn -0.6477 0.3761 0.6626
vn -0.9826 0.1669 0.0817
vn -0.2760 -0.8589 0.4313
vn -0.7195 -0.6275 0.2975
vn -0.9742 -0.1647 0.1544
vn -0.3322 0.2729 0.9029
vn -0.3439 -0.2607 0.9021
vn -0.0236 0.2347 0.9718
vn -0.7073 -0.4213 0.5677
vn -0.9199 0.1759 0.3505
vn -0.9892 -0.1288 0.0701
vn -0.7923 -0.5693 0.2193
vn -0.1459 -0.1885 0.9712
vn -0.2445 0.9177 -0.3132
vn -0.2395 -0.2339 0.9423
vn -0.4888 0.6474 -0.5848
vn -0.2415 -0.7512 -0.6143
vn -0.4633 0.4114 -0.7849
vn -0.5167 0.0203 -0.8559
vn -0.3849 -0.2749 0.8811
vn -0.3093 -0.6725 -0.6723
usemtl Astronaut_mat
s 1
f 8//1 2//1 1//1 7//1
f 8//2 13//2 9//2 2//2
f 14//3 15//3 16//3 17//3
f 16//4 18//4 19//4 17//4
f 20//5 15//5 14//5 21//5
f 22//6 23//6 24//6 25//6
f 26//7 27//7 28//7 29//7
f 30//8 31//8 23//8 22//8
f 32//9 33//9 34//9 35//9
f 34//10 31//10 30//10 35//10
f 36//11 37//11 38//11 39//11
f 38//12 33//12 32//12 39//12
f 40//13 37//13 36//13 41//13
f 19//14 18//14 42//14 43//14
f 44//15 40//15 41//15 45//15
f 41//16 36//16 39//16 46//16
f 39//17 32//17 47//17 46//17
f 35//18 30//18 22//18 48//18
f 47//19 32//19 35//19 48//19
f 29//20 28//20 49//20 50//20
f 21//21 14//21 51//21 52//21
f 48//22 22//22 25//22 53//22
f 45//23 41//23 46//23 54//23
f 46//24 47//24 55//24 54//24
f 51//25 14//25 17//25 56//25
f 57//26 58//26 20//26 21//26
f 52//27 57//27 21//27
f 53//28 55//28 47//28 48//28
f 59//29 60//29 61//29 62//29
f 63//30 56//30 19//30 43//30
f 63//31 51//31 56//31
f 63//32 43//32 59//32 64//32
f 52//33 51//33 65//33 49//33
f 43//34 42//34 60//34 59//34
f 17//35 19//35 56//35
f 65//36 66//36 50//36 49//36
f 67//37 66//37 65//37 64//37
f 62//38 67//38 64//38 59//38
f 57//39 28//39 27//39 58//39
f 25//40 24//40 26//40 29//40
f 52//41 49//41 28//41 57//41
f 53//42 25//42 29//42 50//42
f 44//43 45//43 62//43 61//43
f 55//44 53//44 50//44 66//44
f 54//45 55//45 66//45 67//45
f 63//46 64//46 65//46 51//46
f 45//47 54//47 67//47 62//47
f 68//48 69//48 16//48 15//48
f 16//49 69//49 70//49 18//49
f 20//50 71//50 68//50 15//50
f 72//51 73//51 24//51 23//51
f 26//52 74//52 75//52 27//52
f 76//53 72//53 23//53 31//53
f 77//54 78//54 34//54 33//54
f 34//55 78//55 76//55 31//55
f 79//56 80//56 38//56 37//56
f 38//57 80//57 77//57 33//57
f 40//58 81//58 79//58 37//58
f 70//59 82//59 42//59 18//59
f 44//60 83//60 81//60 40//60
f 81//61 84//61 80//61 79//61
f 80//62 84//62 85//62 77//62
f 78//63 86//63 72//63 76//63
f 85//64 86//64 78//64 77//64
f 74//65 87//65 88//65 75//65
f 71//66 89//66 90//66 68//66
f 86//67 91//67 73//67 72//67
f 83//68 92//68 84//68 81//68
f 84//69 92//69 93//69 85//69
f 90//70 94//70 69//70 68//70
f 95//71 71//71 20//71 58//71
f 89//72 71//72 95//72
f 91//73 86//73 85//73 93//73
f 96//74 97//74 61//74 60//74
f 98//75 82//75 70//75 94//75
f 98//76 94//76 90//76
f 98//77 99//77 96//77 82//77
f 89//78 88//78 100//78 90//78
f 82//79 96//79 60//79 42//79
f 69//80 94//80 70//80
f 100//81 88//81 87//81 101//81
f 102//82 99//82 100//82 101//82
f 97//83 96//83 99//83 102//83
f 95//84 58//84 27//84 75//84
f 73//85 74//85 26//85 24//85
f 89//86 95//86 75//86 88//86
f 91//87 87//87 74//87 73//87
f 44//88 61//88 97//88 83//88
f 93//89 101//89 87//89 91//89
f 92//90 102//90 101//90 93//90
f 98//91 90//91 100//91 99//91
f 83//92 97//92 102//92 92//92
l 3 4
l 4 5
l 5 6
l 6 7
l 3 10
l 10 11
l 11 12
l 12 13
