# Blender v2.81 (sub 16) OBJ File: ''
# www.blender.org
mtllib Shield.mtl
o Astronaut
v 0.233708 3.511096 0.634904
v 0.000000 3.501767 0.705677
v 0.000000 3.329587 0.669329
v 0.219700 3.356574 0.614911
v 0.000000 3.199770 0.581931
v 0.196466 3.242319 0.559073
v 0.000000 3.682006 0.684066
v 0.219073 3.670842 0.617891
v 0.390264 3.532712 0.455351
v 0.310158 3.681073 0.523034
v 0.364447 3.369628 0.444275
v 0.199073 3.779178 0.575945
v 0.000000 3.825440 0.614456
v -0.233708 3.511096 0.634904
v -0.219700 3.356574 0.614911
v -0.196466 3.242319 0.559073
v -0.219073 3.670842 0.617891
v -0.310158 3.681073 0.523034
v -0.390264 3.532712 0.455351
v -0.364447 3.369628 0.444275
v -0.199073 3.779178 0.575945
vn 0.2750 -0.1748 0.9454
vn 0.2386 -0.5083 0.8275
vn 0.2878 0.1203 0.9501
vn 0.7309 0.1141 0.6729
vn 0.7563 -0.1570 0.6352
vn 0.2741 0.4077 0.8710
vn 0.6477 0.3761 0.6626
vn 0.7073 -0.4213 0.5677
vn -0.2750 -0.1748 0.9454
vn -0.2386 -0.5083 0.8275
vn -0.2878 0.1203 0.9501
vn -0.7309 0.1141 0.6729
vn -0.7563 -0.1570 0.6352
vn -0.2741 0.4077 0.8710
vn -0.6477 0.3761 0.6626
vn -0.7073 -0.4213 0.5677
usemtl Astronaut_mat
s 1
f 1//1 2//1 3//1 4//1
f 3//2 5//2 6//2 4//2
f 7//3 2//3 1//3 8//3
f 8//4 1//4 9//4 10//4
f 9//5 1//5 4//5 11//5
f 12//6 13//6 7//6 8//6
f 10//7 12//7 8//7
f 4//8 6//8 11//8
f 14//9 15//9 3//9 2//9
f 3//10 15//10 16//10 5//10
f 7//11 17//11 14//11 2//11
f 17//12 18//12 19//12 14//12
f 19//13 20//13 15//13 14//13
f 21//14 17//14 7//14 13//14
f 18//15 17//15 21//15
f 15//16 20//16 16//16
